<?xml version="1.0" encoding="UTF-8" standalone="no"?>
<!DOCTYPE svg PUBLIC "-//W3C//DTD SVG 1.1//EN" "http://www.w3.org/Graphics/SVG/1.1/DTD/svg11.dtd">
<!-- Created with Vectornator (http://vectornator.io/) -->
<svg height="100%" stroke-miterlimit="10" style="fill-rule:nonzero;clip-rule:evenodd;stroke-linecap:round;stroke-linejoin:round;" version="1.1" viewBox="4.99088 4.99088 500.8 500.8" width="100%" xml:space="preserve" xmlns="http://www.w3.org/2000/svg" xmlns:xlink="http://www.w3.org/1999/xlink">
<defs>
<path d="M41.6621 348.811C93.2565 466.85 230.771 520.714 348.811 469.119C466.85 417.525 520.714 280.01 469.119 161.971C417.525 43.9318 280.01-9.93223 161.971 41.6621C43.9318 93.2565-9.93223 230.771 41.6621 348.811Z" id="TextPath"/>
</defs>
<g id="brklogo">
<path d="M4.99088 255.391C4.99088 117.099 117.099 4.99088 255.391 4.99088C393.683 4.99088 505.79 117.099 505.79 255.391C505.79 393.683 393.683 505.79 255.391 505.79C117.099 505.79 4.99088 393.683 4.99088 255.391Z" fill="transparent" fill-rule="nonzero" opacity="1" stroke="none"/>
<g opacity="1">
<path d="M286.469 219.511L344.915 243.805L349.825 222.543C349.825 222.543 361.882 239.446 368.605 255.391C375.329 271.335 376.036 288.373 376.036 288.373L326.857 287.989L323.783 314.884L377.573 305.278C377.573 305.278 378.954 329.19 372.962 332.557C366.971 335.925 363.357 318.342 363.357 318.342L322.63 325.642C322.63 325.642 322.037 332.29 319.06 338.245C316.082 344.2 311.062 351.514 311.062 351.514C311.062 351.514 312.683 315.136 307.305 283.246C301.926 251.357 286.469 219.511 286.469 219.511Z" fill="#fff500" fill-rule="nonzero" opacity="1" stroke="none"/>
<path d="M52.3534 132.998L118.01 154.438L127.097 119.277C127.097 119.277 153.1 159.562 168.211 200.155C183.323 240.748 186.858 285.684 186.858 285.684L117.615 283.625C117.615 283.625 117.568 303.941 116.481 322.114C115.395 340.287 113.27 356.317 113.27 356.317L193.863 339.724C193.863 339.724 201.03 390.415 191.097 391.478C181.165 392.54 166.998 361.058 166.998 361.058L113.27 367.774C113.27 367.774 113.053 371.378 110.683 376.711C108.313 382.045 103.788 389.107 103.788 389.107C103.788 389.107 99.6075 324.352 87.2617 260.154C74.9159 195.956 52.3534 132.998 52.3534 132.998Z" fill="#fff500" fill-rule="nonzero" opacity="1" stroke="none"/>
<path d="M177.943 179.393L236.068 205.129L243.272 170.987C243.272 170.987 263.396 199.636 274.014 227.629C284.632 255.622 284.718 284.667 284.718 284.667L231.821 283.895L224.871 333.702L291.668 322.119C291.668 322.119 299.004 363.819 290.123 364.977C281.243 366.135 273.135 336.405 273.135 336.405L224.871 345.672C224.871 345.672 225.695 352.357 223.668 359.307C221.641 366.257 216.94 375.598 216.94 375.598C216.94 375.598 216.797 325.694 207.434 277.431C198.071 229.168 177.943 179.393 177.943 179.393Z" fill="#fff500" fill-rule="nonzero" opacity="1" stroke="none"/>
<path d="M383.762 259.166C383.762 259.166 390.261 272.655 393.046 289.644C395.831 306.633 395.71 328.309 395.71 328.309C395.71 328.309 399.36 322.86 400.411 318.75C401.461 314.64 401.547 311.346 401.547 311.346L458.428 289.174L383.762 259.166ZM401.502 289.533L439.791 291.098L401.815 300.7L401.502 289.533Z" fill="#fff500" fill-rule="nonzero" opacity="1" stroke="none"/>
</g>
<text fill="#fff500" font-family="Helvetica" font-size="81.3304" opacity="1" stroke="none" text-anchor="start" transform="matrix(1 0 0 1 174.219 36.7126)" x="0" y="0">
<tspan textLength="162.343" x="0" y="79"><![CDATA[БРК]]></tspan>
</text>
<text fill="#fff500" font-family="Helvetica" font-size="31.0191" opacity="1" stroke="none" transform="matrix(1 0 0 1 0 0)">
<textPath method="align" startOffset="0pt" xlink:href="#TextPath">
<tspan textLength="503.563" x="0"><![CDATA[БУРОВЫЕ  КОМПАНИИ  КУЗБАССА]]></tspan>
</textPath>
</text>
</g>
</svg>
